<svg xmlns="http://www.w3.org/2000/svg" viewBox="0 0 1000 1250" version="1.1" x="0px" y="0px"><g><path fill="#000000" opacity="1.00" d=" M 515.17 59.17 C 520.48 52.24 531.87 51.82 537.67 58.35 C 543.67 64.59 541.44 73.93 542.48 81.72 C 552.67 82.14 562.82 83.31 572.79 85.48 C 575.62 78.23 576.01 68.76 583.33 64.32 C 590.67 59.52 601.67 62.92 604.93 71.10 C 608.44 78.95 603.19 86.77 601.37 94.32 C 611.72 98.67 621.66 104.00 631.02 110.21 C 635.43 105.45 638.99 98.71 646.07 97.70 C 655.08 95.71 664.38 103.80 663.72 112.98 C 663.75 119.76 658.12 124.28 654.29 129.17 C 661.62 136.66 668.58 144.57 674.45 153.26 C 681.35 150.21 687.79 143.74 695.94 145.74 C 704.62 147.39 710.08 157.61 706.66 165.76 C 703.94 173.22 695.60 175.46 689.45 179.26 C 693.26 187.79 696.38 196.62 698.90 205.62 C 706.29 204.89 714.47 201.22 721.37 205.64 C 729.24 210.14 730.89 222.03 724.58 228.53 C 719.73 234.07 711.80 233.56 705.20 234.95 C 706.23 245.69 705.42 256.51 705.68 267.28 C 711.39 267.29 717.87 266.48 722.55 270.54 C 729.88 276.02 730.01 288.16 722.78 293.79 C 718.11 298.01 711.49 297.28 705.70 297.20 C 705.61 307.36 705.77 317.51 705.61 327.66 C 711.83 328.05 718.94 326.55 724.13 330.91 C 731.62 336.35 731.74 348.74 724.40 354.35 C 719.22 358.90 711.97 357.56 705.68 357.71 C 705.68 366.41 705.67 375.11 705.68 383.81 C 712.98 384.16 721.55 382.00 727.56 387.36 C 734.56 393.01 734.43 404.86 727.29 410.34 C 721.26 415.48 712.88 413.24 705.68 413.72 C 705.68 426.40 705.67 439.09 705.68 451.77 C 712.74 452.16 720.95 450.10 726.81 455.20 C 734.06 460.82 733.92 473.00 726.57 478.48 C 720.69 483.35 712.65 481.30 705.68 481.72 C 705.68 489.78 705.67 497.85 705.68 505.92 C 711.93 505.83 719.08 505.35 724.04 509.92 C 730.55 515.34 730.59 526.38 724.09 531.83 C 719.14 536.44 711.95 535.98 705.68 535.88 C 705.67 546.68 705.68 557.48 705.68 568.28 C 712.21 568.50 719.79 566.95 725.12 571.78 C 732.22 577.38 732.14 589.37 724.96 594.88 C 719.63 599.53 712.14 598.03 705.68 598.21 C 705.67 602.05 705.68 605.89 705.67 609.74 C 709.38 610.76 713.17 611.44 716.93 612.25 C 722.21 613.65 725.54 618.35 728.20 622.80 C 731.02 627.74 734.16 632.59 735.94 638.05 C 744.68 662.15 739.92 690.66 723.56 710.45 C 720.99 713.92 717.53 716.57 714.77 719.87 C 713.54 722.35 713.30 725.21 712.59 727.88 C 693.94 807.91 675.26 887.93 656.63 967.95 C 655.73 972.84 651.92 976.29 648.90 979.95 C 645.98 983.33 641.47 985.02 637.05 984.85 C 541.36 984.83 445.68 984.84 349.99 984.84 C 345.70 984.69 341.22 985.41 337.10 983.90 C 332.92 982.45 330.08 978.83 327.72 975.28 C 324.96 971.35 324.63 966.40 323.47 961.88 C 305.06 880.22 286.80 798.52 268.30 716.88 C 250.64 704.06 240.01 682.69 238.99 661.03 C 238.40 647.55 241.53 633.88 248.10 622.08 C 250.67 615.91 256.96 612.51 263.42 612.15 C 263.45 605.75 263.45 599.36 263.43 592.97 C 259.26 592.00 255.04 590.14 252.65 586.41 C 248.03 580.12 249.56 570.42 255.88 565.85 C 258.07 564.12 260.82 563.41 263.44 562.66 C 263.45 551.21 263.44 539.77 263.45 528.33 C 258.87 528.11 254.13 526.59 251.16 522.91 C 246.15 517.32 246.43 507.99 251.76 502.71 C 254.72 499.44 259.16 498.19 263.44 497.95 C 263.45 491.24 263.45 484.53 263.44 477.82 C 259.31 477.32 255.05 476.05 252.26 472.77 C 246.83 467.14 247.08 457.24 252.80 451.91 C 255.57 448.97 259.59 447.91 263.45 447.40 C 263.48 439.30 263.01 431.15 264.56 423.15 C 259.07 421.32 252.58 420.01 249.44 414.59 C 244.24 406.93 248.19 395.25 257.03 392.42 C 262.52 390.13 268.10 392.82 273.33 394.46 C 276.94 389.59 279.62 383.91 283.60 379.20 C 279.95 375.74 276.61 371.32 276.86 366.02 C 276.66 357.60 284.67 350.19 293.06 351.19 C 298.46 351.31 302.54 355.24 305.90 359.02 C 310.64 356.05 315.61 353.47 320.77 351.29 C 318.84 346.31 317.77 340.45 320.66 335.61 C 324.49 328.13 335.01 325.42 341.95 330.21 C 347.04 333.19 348.53 339.23 350.10 344.48 C 357.24 344.24 364.41 344.46 371.46 345.70 C 371.42 329.03 371.46 312.36 371.44 295.69 C 366.43 295.91 360.90 295.49 357.12 291.79 C 350.49 286.16 350.61 274.79 357.37 269.31 C 361.15 265.75 366.55 265.48 371.46 265.63 C 371.42 257.85 371.46 250.07 371.43 242.29 C 366.83 241.88 361.88 240.90 358.67 237.28 C 352.62 231.31 353.35 220.24 360.18 215.15 C 364.14 211.77 369.61 211.50 374.51 212.38 C 376.42 205.00 378.49 197.66 381.06 190.48 C 376.18 188.56 371.32 185.30 369.82 179.97 C 366.80 171.82 372.57 162.08 381.07 160.59 C 385.65 159.47 390.08 161.40 394.08 163.40 C 398.87 155.49 404.22 147.92 410.18 140.84 C 406.10 136.60 400.69 132.51 400.40 126.10 C 399.32 117.41 407.22 109.10 415.95 109.77 C 422.71 109.72 427.24 115.29 431.43 119.79 C 438.98 113.90 446.71 108.23 455.10 103.58 C 452.80 97.79 448.64 91.94 450.56 85.41 C 452.58 76.32 463.91 71.25 472.03 75.84 C 478.04 78.69 479.77 85.55 482.38 91.08 C 492.21 87.66 502.35 85.25 512.61 83.56 C 512.75 75.49 509.44 66.06 515.17 59.17 M 444.42 148.39 C 422.25 168.83 407.23 196.86 402.42 226.62 C 400.81 234.68 401.56 242.92 401.40 251.06 C 401.40 281.04 401.40 311.01 401.40 340.98 C 401.37 346.00 401.68 351.06 400.77 356.03 C 406.82 359.58 412.56 363.64 417.82 368.29 C 423.14 364.85 428.20 359.48 435.09 360.13 C 444.23 360.34 451.39 370.18 448.72 378.94 C 447.33 385.31 441.20 388.47 436.34 391.92 C 439.20 397.24 441.49 402.83 443.59 408.48 C 447.84 408.04 452.44 407.58 456.29 409.89 C 463.47 413.55 466.26 423.41 462.21 430.35 C 459.69 435.21 454.38 437.79 449.10 438.29 C 449.14 450.75 449.11 463.21 449.11 475.67 C 453.51 475.60 458.22 476.23 461.59 479.35 C 467.96 484.52 468.57 494.98 462.88 500.88 C 459.49 504.83 454.11 506.02 449.11 505.81 C 449.12 523.48 449.11 541.14 449.12 558.80 C 454.70 558.80 461.02 558.40 465.48 562.43 C 472.32 567.84 472.52 579.22 465.87 584.87 C 461.41 589.19 454.86 588.93 449.11 588.78 C 449.12 595.81 449.11 602.85 449.12 609.88 C 524.65 609.88 600.19 609.88 675.72 609.88 C 675.70 487.54 675.76 365.20 675.70 242.86 C 673.40 234.06 672.91 224.88 670.58 216.06 C 666.33 198.74 658.68 182.25 648.10 167.88 C 628.25 140.26 597.56 120.64 564.12 114.38 C 521.84 105.50 475.80 118.78 444.42 148.39 M 326.60 381.65 C 313.44 388.70 302.77 400.57 297.67 414.66 C 293.78 424.25 293.27 434.76 293.39 444.98 C 293.40 499.95 293.40 554.91 293.39 609.87 C 335.32 609.89 377.24 609.88 419.16 609.88 C 419.18 554.60 419.13 499.32 419.18 444.04 C 419.18 439.95 417.79 436.02 417.64 431.95 C 416.82 419.54 412.01 407.47 404.24 397.78 C 394.79 385.51 380.35 377.32 365.06 375.07 C 351.98 372.99 338.27 375.42 326.60 381.65 M 272.70 639.80 C 267.62 650.97 267.75 664.14 272.76 675.31 C 276.25 682.87 281.05 690.61 288.89 694.23 C 292.60 696.09 295.22 699.74 296.15 703.75 C 314.95 787.47 333.79 871.18 352.63 954.89 C 444.71 954.87 536.79 954.90 628.87 954.87 C 648.09 872.62 667.20 790.33 686.44 708.08 C 687.55 703.60 690.93 700.21 694.44 697.43 C 707.14 686.97 713.20 668.90 708.78 652.97 C 707.53 648.42 706.21 643.58 703.06 639.96 C 670.38 639.66 637.69 639.93 605.00 639.84 C 494.23 639.81 383.47 639.89 272.70 639.80 Z"/><path fill="#000000" opacity="1.00" d=" M 536.37 124.49 C 543.51 122.93 551.27 127.46 553.48 134.41 C 554.77 138.82 554.09 143.48 554.24 148.01 C 554.25 153.71 554.98 160.20 550.85 164.79 C 545.23 172.10 532.97 171.96 527.49 164.57 C 523.28 159.66 524.39 152.88 524.28 146.93 C 524.43 142.41 523.63 137.65 525.45 133.36 C 527.32 128.83 531.57 125.42 536.37 124.49 Z"/><path fill="#000000" opacity="1.00" d=" M 480.34 161.52 C 489.03 158.96 498.82 165.94 499.05 175.02 C 499.29 183.33 499.12 191.65 499.14 199.96 C 499.28 206.96 493.78 213.42 486.91 214.58 C 480.19 215.94 472.90 212.01 470.36 205.65 C 468.86 202.29 469.22 198.55 469.18 194.97 C 469.27 188.30 469.10 181.62 469.23 174.95 C 469.48 168.68 474.29 163.05 480.34 161.52 Z"/><path fill="#000000" opacity="1.00" d=" M 606.45 166.67 C 614.84 162.91 625.60 168.84 626.84 177.96 C 627.35 184.29 627.02 190.68 627.04 197.04 C 627.02 203.48 622.20 209.46 615.99 211.03 C 609.36 212.99 601.75 209.51 598.73 203.34 C 596.38 198.93 597.27 193.80 597.12 189.02 C 597.22 184.99 596.73 180.88 597.57 176.89 C 598.67 172.32 602.09 168.43 606.45 166.67 Z"/><path fill="#000000" opacity="1.00" d=" M 541.46 206.70 C 549.68 204.55 558.82 210.76 559.68 219.25 C 560.00 226.85 559.86 234.47 559.87 242.08 C 559.94 246.71 557.70 251.27 554.01 254.06 C 549.42 257.65 542.70 258.17 537.64 255.26 C 532.88 252.69 529.78 247.38 529.93 241.96 C 529.88 234.99 529.93 228.02 529.94 221.05 C 529.80 214.34 534.95 208.13 541.46 206.70 Z"/><path fill="#000000" opacity="1.00" d=" M 437.36 212.56 C 445.67 210.29 454.94 216.60 455.75 225.20 C 456.05 231.29 456.68 238.35 452.21 243.22 C 446.53 250.23 434.58 250.02 429.17 242.80 C 425.15 238.16 425.78 231.69 426.00 226.00 C 426.26 219.65 431.21 213.98 437.36 212.56 Z"/><path fill="#000000" opacity="1.00" d=" M 610.39 240.66 C 618.29 237.15 628.37 242.03 630.53 250.39 C 631.63 255.87 630.86 261.51 631.07 267.06 C 630.81 272.93 632.21 279.48 628.68 284.67 C 624.89 290.82 616.42 293.20 609.90 290.17 C 604.46 287.78 600.86 281.95 601.12 276.01 C 601.15 268.66 601.04 261.31 601.15 253.96 C 601.22 248.20 605.07 242.80 610.39 240.66 Z"/><path fill="#000000" opacity="1.00" d=" M 480.46 243.77 C 489.13 241.04 499.11 247.94 499.40 257.07 C 499.57 265.03 499.49 272.99 499.44 280.95 C 499.45 289.28 491.37 296.29 483.15 295.34 C 476.25 294.79 470.15 288.95 469.64 281.99 C 469.31 276.00 469.64 269.98 469.51 263.98 C 469.55 260.63 469.24 257.21 470.13 253.95 C 471.51 249.07 475.59 245.12 480.46 243.77 Z"/><path fill="#000000" opacity="1.00" d=" M 539.25 292.29 C 547.80 289.47 557.80 296.06 558.36 305.08 C 558.64 311.73 558.41 318.39 558.49 325.05 C 558.69 330.32 555.97 335.60 551.44 338.35 C 546.51 341.51 539.73 341.34 534.95 337.95 C 531.05 335.29 528.56 330.69 528.54 325.95 C 528.50 319.30 528.46 312.64 528.57 305.99 C 528.66 299.73 533.27 294.00 539.25 292.29 Z"/><path fill="#000000" opacity="1.00" d=" M 438.58 302.71 C 447.38 300.41 456.99 307.78 456.85 316.92 C 456.66 323.08 458.05 329.99 454.26 335.39 C 450.35 341.42 441.84 343.71 435.43 340.50 C 429.94 337.99 426.47 331.96 426.90 325.96 C 427.07 321.29 426.30 316.40 427.91 311.91 C 429.65 307.32 433.79 303.77 438.58 302.71 Z"/><path fill="#000000" opacity="1.00" d=" M 613.43 319.68 C 619.84 317.30 627.59 320.10 631.09 325.96 C 633.86 330.09 633.30 335.28 633.33 340.00 C 633.20 346.32 633.52 352.65 633.20 358.97 C 632.71 365.83 626.77 371.65 619.97 372.30 C 612.06 373.37 604.07 367.03 603.48 359.05 C 603.16 352.71 603.47 346.36 603.35 340.02 C 603.42 336.37 602.97 332.61 604.12 329.08 C 605.55 324.73 609.10 321.17 613.43 319.68 Z"/><path fill="#000000" opacity="1.00" d=" M 482.41 330.52 C 491.18 326.72 502.23 333.45 502.75 343.02 C 502.94 351.68 502.84 360.37 502.80 369.04 C 502.75 376.81 495.69 383.57 487.94 383.43 C 480.13 383.64 472.93 376.85 472.92 368.99 C 472.85 360.65 472.84 352.30 472.93 343.96 C 472.97 338.09 476.96 332.59 482.41 330.52 Z"/><path fill="#000000" opacity="1.00" d=" M 543.30 380.46 C 551.73 377.82 561.46 384.16 562.21 393.01 C 562.54 401.64 562.31 410.31 562.32 418.95 C 562.40 424.96 559.09 431.07 553.45 433.48 C 546.02 437.12 536.20 432.97 533.55 425.16 C 531.53 419.00 532.70 412.40 532.41 406.04 C 532.66 400.73 531.68 395.25 533.18 390.07 C 534.69 385.46 538.62 381.75 543.30 380.46 Z"/><path fill="#000000" opacity="1.00" d=" M 611.24 398.29 C 619.99 394.78 630.77 401.57 631.19 411.02 C 631.40 420.35 631.22 429.69 631.28 439.02 C 631.47 444.53 628.40 449.97 623.53 452.56 C 618.57 455.37 612.02 454.95 607.46 451.54 C 603.51 448.72 601.18 443.90 601.32 439.06 C 601.34 430.01 601.25 420.95 601.37 411.90 C 601.41 405.89 605.59 400.25 611.24 398.29 Z"/><path fill="#000000" opacity="1.00" d=" M 328.48 413.66 C 337.29 410.49 347.78 417.55 347.94 426.95 C 347.98 433.22 349.08 440.45 344.53 445.55 C 338.99 452.66 327.08 452.67 321.52 445.58 C 317.18 440.78 318.00 433.96 318.08 428.01 C 317.91 421.61 322.38 415.54 328.48 413.66 Z"/><path fill="#000000" opacity="1.00" d=" M 481.36 423.43 C 489.32 419.95 499.41 424.96 501.46 433.38 C 502.48 438.84 501.74 444.44 501.96 449.96 C 501.83 455.47 502.86 461.63 499.35 466.39 C 495.16 472.84 485.74 474.82 479.25 470.76 C 474.83 468.15 471.96 463.15 472.02 458.02 C 471.98 451.00 471.96 443.99 472.03 436.98 C 472.00 431.11 475.94 425.56 481.36 423.43 Z"/><path fill="#000000" opacity="1.00" d=" M 376.45 439.64 C 383.11 436.82 391.50 439.73 395.00 446.06 C 397.76 450.55 396.87 456.01 397.00 461.02 C 396.85 467.02 398.07 473.90 393.78 478.85 C 388.22 486.34 375.70 486.28 370.22 478.73 C 366.04 473.78 367.20 466.98 367.04 461.02 C 367.15 456.93 366.57 452.70 367.82 448.74 C 369.19 444.65 372.43 441.23 376.45 439.64 Z"/><path fill="#000000" opacity="1.00" d=" M 545.42 470.58 C 553.72 468.19 563.13 474.33 564.02 482.95 C 564.47 489.28 564.04 495.63 564.22 501.97 C 564.31 505.97 564.19 510.29 561.78 513.69 C 558.18 519.48 550.42 521.96 544.07 519.59 C 538.46 517.62 534.34 512.02 534.27 506.05 C 534.20 499.02 534.23 491.99 534.25 484.96 C 534.16 478.35 539.02 472.16 545.42 470.58 Z"/><path fill="#000000" opacity="1.00" d=" M 330.30 471.48 C 338.40 467.95 348.66 473.26 350.44 481.91 C 351.31 487.57 350.72 493.34 350.89 499.05 C 351.25 505.49 347.07 511.84 340.94 513.91 C 333.84 516.66 325.15 512.88 322.20 505.90 C 319.85 499.89 321.33 493.25 320.89 486.97 C 320.27 480.46 324.13 473.81 330.30 471.48 Z"/><path fill="#000000" opacity="1.00" d=" M 621.43 502.72 C 630.13 499.89 640.19 506.81 640.49 515.97 C 640.62 523.94 640.58 531.92 640.52 539.89 C 640.35 547.43 633.59 554.01 626.06 554.03 C 618.58 554.49 611.41 548.41 610.74 540.93 C 610.36 535.30 610.72 529.64 610.59 524.00 C 610.65 520.39 610.31 516.72 611.12 513.18 C 612.43 508.21 616.49 504.12 621.43 502.72 Z"/><path fill="#000000" opacity="1.00" d=" M 483.44 507.57 C 491.72 505.85 500.55 512.45 500.99 520.94 C 501.21 529.95 501.04 538.98 501.07 547.99 C 501.36 555.71 494.72 562.85 486.99 563.03 C 479.32 563.75 471.89 557.52 471.23 549.85 C 471.01 540.24 471.09 530.61 471.20 521.00 C 471.59 514.41 476.97 508.65 483.44 507.57 Z"/><path fill="#000000" opacity="1.00" d=" M 377.34 508.46 C 385.71 505.94 395.28 512.29 396.05 521.02 C 396.42 526.65 396.23 532.32 396.21 537.97 C 396.23 545.55 389.54 552.35 381.95 552.44 C 376.09 552.85 370.28 549.36 367.77 544.08 C 365.57 539.70 366.44 534.67 366.28 529.96 C 366.43 525.73 365.67 521.30 367.34 517.28 C 369.05 512.98 372.89 509.65 377.34 508.46 Z"/><path fill="#000000" opacity="1.00" d=" M 329.38 537.63 C 337.91 534.46 348.21 540.87 348.96 549.96 C 349.29 558.30 349.10 566.66 349.06 575.00 C 348.96 582.80 341.75 589.48 334.01 589.23 C 326.36 589.32 319.37 582.74 319.20 575.06 C 319.10 567.35 319.17 559.63 319.17 551.93 C 319.01 545.59 323.37 539.56 329.38 537.63 Z"/><path fill="#000000" opacity="1.00" d=" M 544.38 557.46 C 553.00 554.14 563.46 560.79 564.08 569.99 C 564.35 576.99 564.18 584.01 564.17 591.02 C 564.26 598.60 557.64 605.49 550.05 605.63 C 542.51 606.31 535.18 600.26 534.39 592.74 C 534.31 584.44 533.76 576.04 534.72 567.81 C 535.95 563.03 539.71 559.01 544.38 557.46 Z"/><path fill="#000000" opacity="1.00" d=" M 325.19 692.25 C 366.80 691.93 408.43 692.24 450.05 692.10 C 455.03 691.78 460.18 693.74 463.26 697.74 C 467.25 702.58 467.64 709.94 464.19 715.17 C 461.40 719.61 456.20 722.31 450.96 722.08 C 409.66 722.08 368.35 722.07 327.05 722.09 C 319.25 722.50 312.05 715.79 311.81 708.00 C 311.15 700.28 317.45 692.82 325.19 692.25 Z"/><path fill="#000000" opacity="1.00" d=" M 484.38 694.52 C 489.42 692.94 494.81 693.85 500.01 693.63 C 505.57 693.32 511.14 696.26 513.86 701.14 C 517.40 707.07 516.07 715.34 510.82 719.84 C 507.67 722.77 503.25 723.84 499.04 723.62 C 493.02 723.35 486.27 724.72 481.05 720.92 C 474.85 716.82 472.72 707.85 476.43 701.41 C 478.12 698.24 481.02 695.77 484.38 694.52 Z"/></g><text x="0" y="1015" fill="#000000" font-size="5px" font-weight="bold" font-family="'Helvetica Neue', Helvetica, Arial-Unicode, Arial, Sans-serif">Created by LSE Designs</text><text x="0" y="1020" fill="#000000" font-size="5px" font-weight="bold" font-family="'Helvetica Neue', Helvetica, Arial-Unicode, Arial, Sans-serif">from the Noun Project</text></svg>